<svg preserveAspectRatio="none" overflow="visible" style="display: block;" width="20" height="20" viewBox="0 0 20 20" fill="none" xmlns="http://www.w3.org/2000/svg">
<g id="Official Logo">
<path id="Vector" d="M12.5937 6.29688H12.6562L12.625 6.26562L14.8125 4.07813V4.03125C12.9688 2.40625 10.4219 1.84375 8.0625 2.54687C5.70312 3.25 3.89062 5.125 3.23438 7.5C3.26563 7.48438 3.3125 7.46875 3.35937 7.46875C4.17187 6.9375 5.14063 6.625 6.15625 6.625C6.5 6.625 6.82812 6.65625 7.15625 6.71875C7.17187 6.70313 7.1875 6.70313 7.20312 6.70313C8.60937 5.15625 10.9844 4.96875 12.6094 6.29688H12.5937Z" fill="#EA4535"/>
<path id="Vector_2" d="M16.8906 7.46875C16.5312 6.14062 15.7813 4.9375 14.7344 4.01562L12.5 6.23438C13.4375 7 13.9844 8.15625 13.9531 9.35938V9.75C16.5938 9.75 16.5938 13.6875 13.9531 13.6875H9.98438V16.8125H9.96875L9.98438 16.8438H13.9531C16.2344 16.8594 18.25 15.3906 18.9219 13.2344C19.5937 11.0781 18.7656 8.73437 16.8906 7.46875Z" fill="#557EBF"/>
<path id="Vector_3" d="M6.09375 16.8594H10.2031V13.7031H6.09375C5.79688 13.7031 5.51562 13.6406 5.25 13.5312L2.875 15.8125V15.8438C3.8125 16.5156 4.9375 16.875 6.10937 16.875L6.09375 16.8594Z" fill="#36A852"/>
<path id="Vector_4" d="M6.28125 6.54688C3.95313 6.5625 1.89063 8 1.14063 10.1094C0.390625 12.2344 1.14063 14.5625 2.98438 15.9375L5.42188 13.6094C4.07812 13.0312 3.76563 11.3438 4.79688 10.3594C5.82813 9.35938 7.57813 9.67187 8.1875 10.9531L10.625 8.625C9.59375 7.32812 7.98438 6.5625 6.28125 6.57812V6.54688Z" fill="#F9BC15"/>
</g>
</svg>
